# xmcd
#
# Track frame offsets:
#	150
#	16102
#	32550
#	45409
#	56538
#	74820
#	92780
#	102277
#	114258
#	128359
#
# Disc length: 1961 seconds
#
# Revision: 1
# Processed by: cddbd v1.5.2PL0 Copyright (c) Steve Scherf et al.
# Submitted via: audiograbber 1.83.01
#
DISCID=7607a70a
DTITLE=Various Artist - Best of Country Disc 3
DYEAR=2010
DGENRE=Country
TTITLE0=Tanya Tucker - Here's Some Love [Live]
TTITLE1=Pam Tillis - Don't Tell Me What to Do [Live]
TTITLE2=Holly Dunn - You Really Had Me Going
TTITLE3=Mickey Gilley - You Don't Know Me [Live]
TTITLE4=Janie Fricke - Tell Me a Lie
TTITLE5=Freddy Fender - Secret Love [Live]
TTITLE6=Merle Haggard - Today I Started Loving You Again
TTITLE7=Willie Nelson - Is There Something on Your Mind
TTITLE8=Lacy J. Dalton - Tennessee Waltz
TTITLE9=Juice Newton - You Make Me Want to Make You Mine
EXTD=
EXTT0=
EXTT1=
EXTT2=
EXTT3=
EXTT4=
EXTT5=
EXTT6=
EXTT7=
EXTT8=
EXTT9=
PLAYORDER=
